<svg xmlns="http://www.w3.org/2000/svg" viewBox="0 0 24 24"><g transform="translate(.32505801 .001251) scale(.66611403)"><linearGradient id="a" x1="26.1279" x2="10.2654" y1="36.3276" y2="5.2775" gradientTransform="matrix(1 0 0 -1 0 38)" gradientUnits="userSpaceOnUse"><stop offset=".0014" style="stop-color:#fff"/><stop offset="1" style="stop-color:#fff"/></linearGradient><path d="M27.2 33.1c-8.1 5.4-19 3.1-24.3-5-4-6-3.8-13.5-.1-19.2 1.3-2 3-3.8 5.1-5.2 1.2-.8 4-2.3 6.8-2.2 2.1.1 4.3.7 6.1 2 2.5 1.7 4.1 4.3 4.7 7.1.2.9.3 1.9.3 2.8-1.2-1.5-3-2.6-5-3.2-.9-.3-1.9-.4-3-.5-5.6-.2-10.2 3.5-10.4 8.3-.1 3.9 2.7 7.2 6.8 8.4.3.1.6.2 1 .2l2.1.3c2.8-.1 5.7-1.2 8.1-3.1 1.2-1 2.3-2.1 3.3-3.5.9-1.2 1.5-2.6 2-3.9 1.2-3.4 1.1-7-.1-9.9.6.7 1.2 1.4 1.7 2.2 5.3 8.1 3 19-5.1 24.4z" class="st1" style="fill:url(#a)"/><linearGradient id="b" x1="14.605" x2="23.5934" y1="15.8171" y2="30.9994" gradientTransform="matrix(1 0 0 -1 0 38)" gradientUnits="userSpaceOnUse"><stop offset=".0014" style="stop-color:#fff"/><stop offset="1" style="stop-color:#fff"/></linearGradient><path d="M30.7 16.5c-.5 1.3-1.1 2.6-2 3.9-1 1.4-2.1 2.6-3.3 3.5-2.2 1.7-4.6 2.8-7.1 3.1 2.9-1.6 5.3-4.3 6.5-7.8.7-2 1-4.1.9-6 0-.8-.1-1.7-.3-2.5-.6-2.8-2.2-5.4-4.7-7.1-.3-.3-.7-.6-1.1-.8 0 0-.1 0-.1-.1-1.6-.8-3.5-1.2-5.7-1.1.5-.2 1.7-.7 2.3-.9 3.5-1.2 7.7-.9 10.7 1.2 1.7 1.2 3 2.8 3.8 4.6 1.2 3 1.2 6.6.1 10z" class="st2" style="fill:url(#b)"/><linearGradient id="c" x1="22.197" x2="13.5267" y1="10.9584" y2="22.6991" gradientTransform="matrix(1 0 0 -1 0 38)" gradientUnits="userSpaceOnUse"><stop offset=".0001" style="stop-color:#fff"/><stop offset="1" style="stop-color:#fff"/></linearGradient><path d="M15.3 13c-4 4-4.8 9.8-1.8 13.3-3.7-1.4-6.2-4.6-6-8.2.2-4.8 4.8-8.5 10.4-8.3.7 0 1.3.1 2 .2-1.7.7-3.2 1.6-4.6 3z" class="st3" style="fill:url(#c)"/><linearGradient id="d" x1="31.0222" x2="10.9972" y1="36.3723" y2="17.8098" gradientTransform="matrix(1 0 0 -1 0 38)" gradientUnits="userSpaceOnUse"><stop offset=".0001" style="stop-color:#fff"/><stop offset="1" style="stop-color:#fff;stop-opacity:0"/></linearGradient><path d="M15.3 13c-4 4-4.8 9.8-1.8 13.3-3.7-1.4-6.2-4.6-6-8.2.2-4.8 4.8-8.5 10.4-8.3.7 0 1.3.1 2 .2-1.7.7-3.2 1.6-4.6 3z" class="st4" style="fill:url(#d)"/><linearGradient id="e" x1="31.9331" x2=".9299" y1="12.9715" y2="25.0858" gradientTransform="matrix(1 0 0 -1 0 38)" gradientUnits="userSpaceOnUse"><stop offset="0" style="stop-color:#fff"/><stop offset=".9999" style="stop-color:#fff;stop-opacity:0"/></linearGradient><path d="M27.2 33.1c-8.1 5.4-19 3.1-24.3-5-4-6-3.8-13.5-.1-19.2 1.3-2 3-3.8 5.1-5.2C9.1 3 12 1.5 14.7 1.6c2.1.1 4.3.7 6.1 2 2.5 1.7 4.1 4.3 4.7 7.1.2.9.3 1.9.3 2.8-1.2-1.5-3.2-2.7-5-3.2-.9-.3-1.9-.4-3-.5-5.6-.2-10.2 3.5-10.4 8.3-.1 3.9 2.7 7.2 6.8 8.4.3.1.6.2 1 .2l2.1.3c2.8-.1 5.7-1.2 8.1-3.1 1.2-1 2.3-2.1 3.3-3.5.9-1.2 1.5-2.6 2-3.9 1.2-3.4 1.1-7-.1-9.9.6.7 1.2 1.4 1.7 2.2 5.3 8 3 18.9-5.1 24.3z" class="st5" style="fill:url(#e)"/><linearGradient id="f" x1="9.2135" x2="17.651" y1="43.4797" y2="19.2922" gradientTransform="matrix(1 0 0 -1 0 38)" gradientUnits="userSpaceOnUse"><stop offset="0" style="stop-color:#fff"/><stop offset=".9999" style="stop-color:#fff;stop-opacity:0"/></linearGradient><path d="M27.2 33.1c-8.1 5.4-19 3.1-24.3-5-4-6-3.8-13.5-.1-19.2 1.3-2 3-3.8 5.1-5.2C9.1 3 12 1.5 14.7 1.6c2.1.1 4.3.7 6.1 2 2.5 1.7 4.1 4.3 4.7 7.1.2.9.3 1.9.3 2.8-1.2-1.5-3.2-2.7-5-3.2-.9-.3-1.9-.4-3-.5-5.6-.2-10.2 3.5-10.4 8.3-.1 3.9 2.7 7.2 6.8 8.4.3.1.6.2 1 .2l2.1.3c2.8-.1 5.7-1.2 8.1-3.1 1.2-1 2.3-2.1 3.3-3.5.9-1.2 1.5-2.6 2-3.9 1.2-3.4 1.1-7-.1-9.9.6.7 1.2 1.4 1.7 2.2 5.3 8 3 18.9-5.1 24.3z" class="st6" style="fill:url(#f)"/><linearGradient id="g" x1="43.7809" x2="11.4935" y1="2.7352" y2="22.9852" gradientTransform="matrix(1 0 0 -1 0 38)" gradientUnits="userSpaceOnUse"><stop offset="0" style="stop-color:#fff"/><stop offset=".9999" style="stop-color:#fff;stop-opacity:0"/></linearGradient><path d="M27.2 33.1c-8.1 5.4-19 3.1-24.3-5-4-6-3.8-13.5-.1-19.2 1.3-2 3-3.8 5.1-5.2C9.1 3 12 1.5 14.7 1.6c2.1.1 4.3.7 6.1 2 2.5 1.7 4.1 4.3 4.7 7.1.2.9.3 1.9.3 2.8-1.2-1.5-3.2-2.7-5-3.2-.9-.3-1.9-.4-3-.5-5.6-.2-10.2 3.5-10.4 8.3-.1 3.9 2.7 7.2 6.8 8.4.3.1.6.2 1 .2l2.1.3c2.8-.1 5.7-1.2 8.1-3.1 1.2-1 2.3-2.1 3.3-3.5.9-1.2 1.5-2.6 2-3.9 1.2-3.4 1.1-7-.1-9.9.6.7 1.2 1.4 1.7 2.2 5.3 8 3 18.9-5.1 24.3z" class="st7" style="fill:url(#g)"/><g class="st8" style="opacity:.3"><linearGradient id="h" x1="12.0608" x2="20.4619" y1="27.3695" y2="14.6658" gradientTransform="matrix(1 0 0 -1 0 38)" gradientUnits="userSpaceOnUse"><stop offset="0" style="stop-color:#fff"/><stop offset="1" style="stop-color:#fff"/></linearGradient><path d="M25.7 13.4c-1.2-1.5-3.3-2.8-5.1-3.3-1-.3-2-.5-3-.5-5.8-.2-10.6 3.6-10.7 8.5-.1 4 2.6 7.1 6.8 8.3.3.1 1.6.4 1.6.4-.3-.1-.6-.2-1-.2-4.1-1.2-6.9-4.6-6.8-8.4.2-4.8 4.8-8.5 10.4-8.3 1 0 2 .2 3 .5 1.7.4 3.7 1.6 4.8 3z" class="st9" style="fill:url(#h)"/></g><g class="st10" style="opacity:.5"><linearGradient id="i" x1="21.2139" x2="27.9561" y1="25.2626" y2="15.0673" gradientTransform="matrix(1 0 0 -1 0 38)" gradientUnits="userSpaceOnUse"><stop offset="0" style="stop-color:#fff"/><stop offset="1" style="stop-color:#fff"/></linearGradient><path d="M25.5 24.6c1.2-.9 2.4-2 3.4-3.4.9-1.2 1.5-2.6 2-3.9C32 13.9 32 10 30.8 7.1l-.2-.5c1.3 2.9 1.3 6.5.1 9.9-.5 1.3-1.1 2.6-2 3.9-1 1.4-2.1 2.6-3.3 3.5-2.4 1.9-5.3 3-8.1 3.1 0 .1 4.1.6 8.2-2.4z" class="st11" style="fill:url(#i)"/></g><linearGradient id="j" x1="9.9371" x2="28.2162" y1="25.2277" y2="23.8681" gradientTransform="matrix(1 0 0 -1 0 38)" gradientUnits="userSpaceOnUse"><stop offset=".0014" style="stop-color:#fff"/><stop offset=".738" style="stop-color:#fff;stop-opacity:0"/></linearGradient><path d="M30.7 16.5c-.5 1.3-1.1 2.6-2 3.9-1 1.4-2.1 2.6-3.3 3.5-2.2 1.7-4.6 2.8-7.1 3.1 2.9-1.6 5.3-4.3 6.5-7.8.7-2 1-4.1.9-6 0-.8-.1-1.7-.3-2.5-.6-2.8-2.2-5.4-4.7-7.1-.3-.3-.7-.6-1.1-.8 0 0-.1 0-.1-.1-1.6-.8-3.5-1.2-5.7-1.1.5-.2 1.7-.7 2.3-.9 3.5-1.2 7.7-.9 10.7 1.2 1.7 1.2 3 2.8 3.8 4.6 1.2 3 1.2 6.6.1 10z" class="st12" style="fill:url(#j)"/><linearGradient id="k" x1="28.9685" x2="18.731" y1="44.9167" y2="20.7292" gradientTransform="matrix(1 0 0 -1 0 38)" gradientUnits="userSpaceOnUse"><stop offset=".0014" style="stop-color:#fff"/><stop offset=".738" style="stop-color:#fff;stop-opacity:0"/></linearGradient><path d="M30.7 16.5c-.5 1.3-1.1 2.6-2 3.9-1 1.4-2.1 2.6-3.3 3.5-2.2 1.7-4.6 2.8-7.1 3.1 2.9-1.6 5.3-4.3 6.5-7.8.7-2 1-4.1.9-6 0-.8-.1-1.7-.3-2.5-.6-2.8-2.2-5.4-4.7-7.1-.3-.3-.7-.6-1.1-.8 0 0-.1 0-.1-.1-1.6-.8-3.5-1.2-5.7-1.1.5-.2 1.7-.7 2.3-.9 3.5-1.2 7.7-.9 10.7 1.2 1.7 1.2 3 2.8 3.8 4.6 1.2 3 1.2 6.6.1 10z" class="st13" style="fill:url(#k)"/><g class="st10" style="opacity:.5"><linearGradient id="l" x1="16.1902" x2="25.348" y1="38.057" y2="24.2091" gradientTransform="matrix(1 0 0 -1 0 38)" gradientUnits="userSpaceOnUse"><stop offset="0" style="stop-color:#fff"/><stop offset="1" style="stop-color:#fff"/></linearGradient><path d="M15.4 1.4c2-.1 3.7.3 5.6 1.6 2.5 1.8 4.1 4.8 4.7 7.7.2 1.3.1 2.9.1 2.9 0-1-.1-1.9-.3-2.8-.6-2.8-2.2-5.4-4.7-7.1-1.9-1.3-4-1.9-6.1-2h-1c0-.1 1.4-.3 1.7-.3z" class="st14" style="fill:url(#l)"/></g></g></svg>