<?xml version="1.0" encoding="utf-8"?>
<svg viewBox="0 0 24 24" xmlns="http://www.w3.org/2000/svg">
  <defs>
    <linearGradient id="paint0_linear_3_222" x1="163.93" y1="49.5" x2="93.4077" y2="187.469" gradientUnits="userSpaceOnUse" gradientTransform="matrix(1, 0, 0, 1, 212.004074, 134.000076)">
      <stop offset="0.0014" stop-color="white" stop-opacity="0"/>
      <stop offset="1" stop-color="white"/>
    </linearGradient>
    <linearGradient id="paint1_linear_3_222" x1="100.852" y1="134.578" x2="140.811" y2="67.1202" gradientUnits="userSpaceOnUse" gradientTransform="matrix(1, 0, 0, 1, 212.004074, 134.000076)">
      <stop offset="0.0014" stop-color="white" stop-opacity="0"/>
      <stop offset="1" stop-color="white"/>
    </linearGradient>
    <linearGradient id="paint2_linear_3_222" x1="126.483" y1="162.18" x2="87.9429" y2="110.02" gradientUnits="userSpaceOnUse" gradientTransform="matrix(1, 0, 0, 1, 212.004074, 134.000076)">
      <stop offset="0.0001" stop-color="white" stop-opacity="0"/>
      <stop offset="1" stop-color="white"/>
    </linearGradient>
    <linearGradient id="paint3_linear_3_222" x1="181.713" y1="137.341" x2="43.9756" y2="83.5505" gradientUnits="userSpaceOnUse" gradientTransform="matrix(1, 0, 0, 1, 212.004074, 134.000076)">
      <stop stop-color="white"/>
      <stop offset="0.9999" stop-color="white" stop-opacity="0"/>
    </linearGradient>
    <linearGradient id="paint4_linear_3_222" x1="74.4789" y1="12.4997" x2="111.995" y2="119.987" gradientUnits="userSpaceOnUse" gradientTransform="matrix(1, 0, 0, 1, 212.004074, 134.000076)">
      <stop stop-color="white"/>
      <stop offset="0.9999" stop-color="white" stop-opacity="0"/>
    </linearGradient>
    <linearGradient id="paint5_linear_3_222" x1="236.89" y1="182.5" x2="93.4244" y2="92.57" gradientUnits="userSpaceOnUse" gradientTransform="matrix(1, 0, 0, 1, 212.004074, 134.000076)">
      <stop stop-color="white"/>
      <stop offset="0.9999" stop-color="white" stop-opacity="0"/>
    </linearGradient>
    <linearGradient id="paint6_linear_3_222" x1="89.4966" y1="83.2545" x2="126.865" y2="139.731" gradientUnits="userSpaceOnUse">
      <stop stop-color="white"/>
      <stop offset="1" stop-color="white"/>
    </linearGradient>
    <linearGradient id="paint7_linear_3_222" x1="130.203" y1="92.6308" x2="160.201" y2="137.967" gradientUnits="userSpaceOnUse">
      <stop stop-color="white"/>
      <stop offset="1" stop-color="white"/>
    </linearGradient>
    <linearGradient id="paint8_linear_3_222" x1="107.915" y1="35.7488" x2="148.645" y2="97.3038" gradientUnits="userSpaceOnUse">
      <stop stop-color="white"/>
      <stop offset="1" stop-color="white"/>
    </linearGradient>
  </defs>
  <g transform="matrix(0.15000000596046448, 0, 0, 0.15000000596046448, -36.90057373046875, -25.499954223632816)">
    <path d="M 369.049 317.045 C 333.107 340.83 284.742 330.925 260.97 295.026 C 243.377 268.465 244.197 235.09 260.339 209.853 C 266.015 200.958 273.644 193.071 282.977 186.888 C 288.4 183.292 300.57 176.731 313.244 177.046 C 322.765 177.298 332.224 180.138 340.484 185.816 C 351.582 193.45 358.645 204.806 361.356 217.424 C 362.239 221.525 362.617 225.752 362.554 230.043 C 357.131 223.481 349.375 218.434 340.358 215.784 C 336.197 214.585 331.846 213.828 327.242 213.702 C 302.461 212.882 281.842 229.412 281.148 250.547 C 280.581 267.708 293.318 282.597 311.352 288.086 C 312.739 288.528 314.127 288.843 315.577 289.159 C 318.541 289.79 321.63 290.168 324.783 290.294 L 324.846 290.294 C 337.332 289.853 350.069 284.995 360.915 276.351 C 366.338 272.061 371.256 266.825 375.418 260.705 C 379.201 255.153 382.102 249.348 384.183 243.418 C 389.416 228.276 389.101 212.44 383.552 199.317 C 386.264 202.283 388.786 205.5 391.056 208.97 C 414.828 244.869 404.928 293.26 369.049 317.045 Z" fill="url(#paint0_linear_3_222)"/>
    <path d="M 384.244 243.355 C 382.163 249.285 379.262 255.09 375.479 260.642 C 371.254 266.761 366.335 271.998 360.976 276.288 C 351.391 283.922 340.419 288.591 329.384 289.853 C 342.059 282.85 352.715 270.799 358.453 255.279 C 361.732 246.32 363.057 237.172 362.552 228.402 C 362.489 224.68 362.111 220.957 361.354 217.424 C 358.643 204.806 351.58 193.45 340.482 185.816 C 338.717 184.617 336.825 183.481 334.87 182.472 C 334.681 182.409 334.555 182.283 334.366 182.219 C 327.24 178.686 318.728 176.667 308.954 177.172 L 308.891 177.172 C 311.035 176.1 316.647 174.018 319.169 173.134 C 334.933 167.645 353.157 169.286 366.903 178.686 C 374.533 183.923 380.082 191.052 383.613 199.317 C 389.162 212.377 389.477 228.213 384.244 243.355 Z" fill="url(#paint1_linear_3_222)"/>
    <path d="M 316.081 227.708 C 298.236 245.562 294.894 271.43 308.009 286.95 C 291.741 280.767 280.643 266.635 281.147 250.547 C 281.841 229.411 302.46 212.881 327.242 213.702 C 330.268 213.828 333.232 214.143 336.133 214.711 C 329.007 217.361 322.071 221.714 316.081 227.708 Z" fill="url(#paint2_linear_3_222)"/>
    <path d="M 369.049 317.045 C 333.107 340.83 284.742 330.925 260.97 295.026 C 243.377 268.465 244.197 235.089 260.339 209.853 C 266.015 200.957 273.644 193.071 282.977 186.888 C 288.4 183.292 301.326 176.541 313.244 177.046 C 322.765 177.487 332.224 180.137 340.484 185.815 C 351.582 193.449 358.645 204.806 361.356 217.424 C 362.239 221.525 362.617 225.752 362.554 230.042 C 357.131 223.481 348.303 217.992 340.358 215.784 C 336.197 214.648 331.846 213.828 327.242 213.702 C 302.461 212.881 281.842 229.411 281.148 250.547 C 280.581 267.708 293.318 282.597 311.352 288.086 C 312.739 288.528 314.127 288.843 315.577 289.158 C 318.541 289.789 321.63 290.168 324.783 290.294 L 324.846 290.294 C 337.332 289.852 350.069 284.994 360.915 276.351 C 366.338 272.061 371.256 266.824 375.418 260.704 C 379.201 255.152 382.102 249.348 384.183 243.417 C 389.416 228.276 389.101 212.44 383.552 199.317 C 386.264 202.282 388.786 205.5 391.056 208.97 C 414.828 244.869 404.928 293.259 369.049 317.045 Z" fill="url(#paint3_linear_3_222)"/>
    <path d="M 369.049 317.045 C 333.107 340.83 284.742 330.925 260.97 295.026 C 243.377 268.465 244.197 235.089 260.339 209.853 C 266.015 200.957 273.644 193.071 282.977 186.888 C 288.4 183.292 301.326 176.541 313.244 177.046 C 322.765 177.487 332.224 180.137 340.484 185.815 C 351.582 193.449 358.645 204.806 361.356 217.424 C 362.239 221.525 362.617 225.752 362.554 230.042 C 357.131 223.481 348.303 217.992 340.358 215.784 C 336.197 214.648 331.846 213.828 327.242 213.702 C 302.461 212.881 281.842 229.411 281.148 250.547 C 280.581 267.708 293.318 282.597 311.352 288.086 C 312.739 288.528 314.127 288.843 315.577 289.158 C 318.541 289.789 321.63 290.168 324.783 290.294 L 324.846 290.294 C 337.332 289.852 350.069 284.994 360.915 276.351 C 366.338 272.061 371.256 266.824 375.418 260.704 C 379.201 255.152 382.102 249.348 384.183 243.417 C 389.416 228.276 389.101 212.44 383.552 199.317 C 386.264 202.282 388.786 205.5 391.056 208.97 C 414.828 244.869 404.928 293.259 369.049 317.045 Z" fill="url(#paint4_linear_3_222)" style="mix-blend-mode:multiply"/>
    <path d="M 369.049 317.045 C 333.107 340.83 284.742 330.925 260.97 295.026 C 243.377 268.465 244.197 235.089 260.339 209.853 C 266.015 200.957 273.644 193.071 282.977 186.888 C 288.4 183.292 301.326 176.541 313.244 177.046 C 322.765 177.487 332.224 180.137 340.484 185.815 C 351.582 193.449 358.645 204.806 361.356 217.424 C 362.239 221.525 362.617 225.752 362.554 230.042 C 357.131 223.481 348.303 217.992 340.358 215.784 C 336.197 214.648 331.846 213.828 327.242 213.702 C 302.461 212.881 281.842 229.411 281.148 250.547 C 280.581 267.708 293.318 282.597 311.352 288.086 C 312.739 288.528 314.127 288.843 315.577 289.158 C 318.541 289.789 321.63 290.168 324.783 290.294 L 324.846 290.294 C 337.332 289.852 350.069 284.994 360.915 276.351 C 366.338 272.061 371.256 266.824 375.418 260.704 C 379.201 255.152 382.102 249.348 384.183 243.417 C 389.416 228.276 389.101 212.44 383.552 199.317 C 386.264 202.282 388.786 205.5 391.056 208.97 C 414.828 244.869 404.928 293.259 369.049 317.045 Z" fill="url(#paint5_linear_3_222)" style="mix-blend-mode:overlay"/>
    <g opacity="0.3" transform="matrix(1, 0, 0, 1, 212.004074, 134.000076)">
      <path d="M150.236 95.5376C144.687 88.85 135.607 83.1718 127.41 80.8374C123.122 79.6387 118.645 78.8185 113.916 78.6923C88.4407 77.8722 67.2537 94.8436 66.5601 116.547C65.9926 134.149 78.0364 147.903 96.575 153.518C97.9623 153.96 103.637 155.096 103.637 155.096C102.187 154.78 100.8 154.401 99.4126 154.023C81.3784 148.534 68.6409 133.645 69.2084 116.484C69.902 95.3484 90.5216 78.8185 115.303 79.6387C119.906 79.7649 124.257 80.5851 128.419 81.7207C136.427 83.9289 145.192 89.4809 150.615 95.9793L150.236 95.5376Z" fill="url(#paint6_linear_3_222)" style="mix-blend-mode:screen"/>
    </g>
    <g opacity="0.5" transform="matrix(1, 0, 0, 1, 212.004074, 134.000076)">
      <path d="M149.289 145.128C154.838 141.027 159.946 136.106 164.17 129.986C167.954 124.434 170.854 118.629 172.935 112.699C178.169 97.5571 178.232 80.5856 172.683 67.5258L171.611 65.3176C177.223 78.3774 177.538 94.2132 172.242 109.418C170.161 115.349 167.26 121.153 163.477 126.705C159.252 132.825 154.333 138.061 148.974 142.352C138.128 150.995 125.327 155.853 112.905 156.295C112.842 156.232 131.002 158.566 149.289 145.128Z" fill="url(#paint7_linear_3_222)" style="mix-blend-mode:screen"/>
    </g>
    <g opacity="0.5" transform="matrix(1, 0, 0, 1, 212.004074, 134.000076)">
      <path d="M104.52 42.1626C113.411 41.9103 121.167 43.3614 129.302 49.2288C140.21 57.0521 147.714 70.5536 150.047 83.2349C151.056 88.9131 150.552 96.1054 150.552 96.1054C150.615 91.8153 150.237 87.5882 149.354 83.4872C146.642 70.869 139.58 59.5127 128.482 51.8787C120.221 46.2005 110.763 43.5506 101.241 43.109C99.7281 43.0459 98.2778 43.109 96.7644 43.2352C96.7014 43.1721 103.07 42.1626 104.52 42.1626Z" fill="url(#paint8_linear_3_222)" style="mix-blend-mode:screen"/>
    </g>
  </g>
</svg>