<svg xmlns="http://www.w3.org/2000/svg" viewBox="0 0 24 24"><path d="M-65.857 96.748h20.722v5.09h-20.722z" style="fill:#fff;fill-opacity:1;stroke-width:.0943025" transform="matrix(-.57692545 -.31640876 0 .7504565 -13.9945867 -80.03112407)"/><path d="M-65.857 87.913h20.722v5.09h-20.722z" style="fill:#fff;fill-opacity:1;stroke-width:.0943025" transform="matrix(-.57692545 -.31640876 0 .7504565 -13.9945867 -80.03096286)"/><path d="M45.06 143.446h20.798v5.123H45.06z" style="fill:#fff;fill-opacity:1;stroke-width:.0942989" transform="matrix(.57691295 -.31643113 0 .7504723 -13.99508085 -80.03130107)"/><path d="M-45.06 105.451h20.8v5.123h-20.8z" style="fill:#fff;fill-opacity:1;stroke-width:.0943025" transform="matrix(-.57692545 -.31640876 0 .7504565 -13.99561185 -80.03084837)"/><path d="M24.237 125.978h20.86v5.128h-20.86z" style="fill:#fff;fill-opacity:1;stroke-width:.0944389" transform="matrix(.57742553 -.31549546 0 .74980707 -13.99508085 -80.03130107)"/><path d="M45.06 152.281h20.798v5.123H45.06z" style="fill:#fff;fill-opacity:1;stroke-width:.0942989" transform="matrix(.57691295 -.31643113 0 .7504723 -13.99508085 -80.03130107)"/><path d="M-45.06 114.286h20.8v5.123h-20.8z" style="fill:#fff;fill-opacity:1;stroke-width:.0943025" transform="matrix(-.57692545 -.31640876 0 .7504565 -13.99561185 -80.03102142)"/><path d="M24.237 134.821h20.86v5.128h-20.86z" style="fill:#fff;fill-opacity:1;stroke-width:.0944389" transform="matrix(.57742553 -.31549546 0 .74980707 -13.99508085 -80.03130107)"/></svg>