<svg xmlns="http://www.w3.org/2000/svg" viewBox="0 0 24 24"><path fill="#FFF" d="M12 0C5.377 0 0 5.377 0 12s5.377 12 12 12 12-5.377 12-12S18.623 0 12 0Zm0 .27C18.474.27 23.73 5.526 23.73 12S18.474 23.73 12 23.73.27 18.474.27 12 5.526.27 12 .27Zm.016 11.493L9.894 2.212l-.066.014A10.056 10.056 0 0 0 5.62 4.262l-.052.043 6.184 7.501-7.605-3.672-.028.062a8.833 8.833 0 0 0-.68 5.299l.012.066 8.087-1.412-4.069 1.973.017.056c.075.234.166.462.274.683l.034.07 4.103-2.78-1.326 5.969.067.014c.81.161 1.644.161 2.454 0l.065-.013-1.044-5.87 6.078 7.664.053-.042a10.04 10.04 0 0 0 1.629-1.629l.042-.053-7.722-6.124h2.293l.008-.058a2.513 2.513 0 0 0 0-.693l-.011-.076-2.302.64 4.499-5.69-.055-.042a7.495 7.495 0 0 0-2.041-1.088l-.062-.022-2.506 6.725Z"/></svg>