<?xml version="1.0" encoding="utf-8"?>
<svg viewBox="0 0 24 24" style="shape-rendering: geometricprecision;" xmlns="http://www.w3.org/2000/svg">
  <g transform="matrix(0.24916201829910278, 0, 0, 0.24916201829910278, -3.78094482421875, -3.7815699577331685)">
    <path style="opacity:1" fill="#FFFFFF" d="M 81.5,15.5 C 94.5996,13.802 104.1,18.802 110,30.5C 113.854,44.6116 109.354,55.1116 96.5,62C 88.2427,63.24 79.9094,63.9067 71.5,64C 68.8293,65.25 66.6626,67.0833 65,69.5C 63.5351,83.4021 63.0351,97.4021 63.5,111.5C 47.5,111.5 31.5,111.5 15.5,111.5C 15.1672,94.1539 15.5005,76.8205 16.5,59.5C 34.1835,67.063 48.6835,63.063 60,47.5C 62.1446,43.0662 63.4779,38.3995 64,33.5C 67.3531,24.9815 73.1865,18.9815 81.5,15.5 Z"/>
  </g>
</svg>