<?xml version="1.0" encoding="utf-8"?>
<svg viewBox="0 0 24 24" xmlns="http://www.w3.org/2000/svg">
  <path fill="#FFFFFF" d="M 1.273 4.15 C 1.41 3.76 1.777 3.5 2.189 3.5 L 23.514 3.5 C 23.848 3.5 24.083 3.83 23.972 4.146 L 22.727 7.706 C 22.59 8.095 22.223 8.355 21.81 8.355 L 0.486 8.355 C 0.151 8.355 -0.084 8.025 0.028 7.71 L 1.273 4.15 Z M 6.129 10.219 C 6.265 9.829 6.631 9.568 7.044 9.568 L 15.382 9.568 C 15.715 9.568 15.951 9.9 15.84 10.214 L 14.595 13.775 C 14.458 14.163 14.091 14.424 13.678 14.424 L 5.341 14.424 C 5.007 14.424 4.773 14.094 4.883 13.778 L 6.129 10.219 Z M 8.826 16.287 C 8.963 15.899 9.329 15.638 9.742 15.638 L 13.224 15.638 C 13.559 15.638 13.793 15.968 13.683 16.284 L 12.437 19.844 C 12.3 20.233 11.933 20.493 11.52 20.493 L 8.039 20.493 C 7.704 20.492 7.47 20.163 7.581 19.848 L 8.826 16.287 Z"/>
</svg>