<?xml version="1.0" encoding="UTF-8"?>
<svg xmlns="http://www.w3.org/2000/svg" xmlns:xlink="http://www.w3.org/1999/xlink" width="512px" height="512px" viewBox="0 0 512 512" version="1.1">
<g id="surface1">
<path style=" stroke:none;fill-rule:nonzero;fill:rgb(0%,67.45098%,27.843137%);fill-opacity:1;" d="M 380 256 C 380.039062 316.242188 336.75 367.78125 277.410156 378.148438 C 218.066406 388.515625 159.867188 354.699219 139.484375 298.015625 L 68.558594 354.753906 C 113.941406 441.023438 212.324219 485.203125 306.953125 461.808594 C 401.582031 438.414062 468.046875 353.480469 468 256 "/>
<path style=" stroke:none;fill-rule:nonzero;fill:rgb(25.882353%,52.156863%,95.686275%);fill-opacity:1;" d="M 380 256 C 379.96875 296.027344 360.585938 333.570312 327.972656 356.777344 L 398.09375 412.875 C 442.558594 372.839844 467.960938 315.832031 468 256 "/>
<path style=" stroke:none;fill-rule:nonzero;fill:rgb(100%,72.941176%,0%);fill-opacity:1;" d="M 132 256 C 132.03125 241.667969 134.5625 227.449219 139.484375 213.984375 L 68.558594 157.246094 C 35.8125 219.011719 35.8125 292.988281 68.558594 354.753906 L 139.484375 298.015625 C 134.5625 284.550781 132.03125 270.332031 132 256 Z M 132 256 "/>
<path style=" stroke:none;fill-rule:nonzero;fill:rgb(91.764706%,26.666667%,20.784314%);fill-opacity:1;" d="M 256 132 C 282.238281 132.007812 307.789062 140.390625 328.929688 155.933594 L 393.886719 95.304688 C 345.035156 53.183594 279.632812 35.667969 216.269531 47.730469 C 152.90625 59.796875 98.515625 100.121094 68.558594 157.246094 L 139.484375 213.984375 C 157.203125 164.863281 203.78125 132.089844 256 132 Z M 256 132 "/>
<path style=" stroke:none;fill-rule:nonzero;fill:rgb(25.882353%,52.156863%,95.686275%);fill-opacity:1;" d="M 468 240 L 468 256 L 432 312 L 264 312 L 264 224 L 452 224 C 460.835938 224 468 231.164062 468 240 Z M 468 240 "/>
</g>
</svg>
